<svg width="285" height="280" viewBox="0 0 285 280" fill="none" xmlns="http://www.w3.org/2000/svg">
<circle cx="157" cy="251" r="28.3" fill="white" fill-opacity="0.72" stroke="#555C63" stroke-width="1.4"/>
<path d="M154.184 244.909V258H151.416V247.536H151.34L148.342 249.415V246.961L151.583 244.909H154.184ZM157.295 258V256.006L161.955 251.691C162.352 251.308 162.684 250.962 162.952 250.656C163.225 250.349 163.432 250.048 163.572 249.754C163.713 249.456 163.783 249.134 163.783 248.789C163.783 248.406 163.696 248.075 163.521 247.798C163.347 247.517 163.108 247.302 162.805 247.153C162.503 246.999 162.16 246.923 161.776 246.923C161.376 246.923 161.026 247.004 160.728 247.165C160.43 247.327 160.2 247.56 160.038 247.862C159.876 248.165 159.795 248.525 159.795 248.942H157.168C157.168 248.086 157.362 247.342 157.749 246.712C158.137 246.081 158.68 245.593 159.379 245.248C160.078 244.903 160.884 244.73 161.795 244.73C162.733 244.73 163.549 244.896 164.244 245.229C164.942 245.557 165.486 246.013 165.874 246.597C166.261 247.18 166.455 247.849 166.455 248.604C166.455 249.098 166.357 249.586 166.161 250.067C165.969 250.549 165.626 251.084 165.132 251.672C164.638 252.256 163.941 252.957 163.042 253.775L161.131 255.648V255.737H166.628V258H157.295Z" fill="black"/>
<circle cx="42" cy="99" r="23.3" fill="white" fill-opacity="0.72" stroke="#555C63" stroke-width="1.4"/>
<path d="M38.7263 106L44.1531 95.2614V95.1719H37.8314V92.9091H47.0168V95.2038L41.5835 106H38.7263Z" fill="black"/>
<circle cx="24" cy="24" r="23.3" fill="white" fill-opacity="0.72" stroke="#555C63" stroke-width="1.4"/>
<path d="M23.8562 17.7301C24.5295 17.7301 25.1772 17.843 25.7994 18.0689C26.4258 18.2947 26.984 18.6548 27.4741 19.1491C27.9684 19.6435 28.3583 20.2997 28.6438 21.1179C28.9336 21.9318 29.0806 22.9311 29.0849 24.1158C29.0849 25.228 28.9592 26.2209 28.7077 27.0945C28.4606 27.9638 28.1048 28.7031 27.6403 29.3125C27.1758 29.9219 26.6154 30.3864 25.9592 30.706C25.3029 31.0213 24.57 31.179 23.7603 31.179C22.8867 31.179 22.1154 31.0107 21.4464 30.674C20.7773 30.3331 20.2383 29.8707 19.8292 29.2869C19.4244 28.6989 19.1793 28.0384 19.0941 27.3054H21.8235C21.93 27.7827 22.1538 28.1534 22.4947 28.4176C22.8356 28.6776 23.2575 28.8075 23.7603 28.8075C24.6126 28.8075 25.2603 28.4368 25.7035 27.6953C26.1467 26.9496 26.3704 25.929 26.3746 24.6335H26.2852C26.0891 25.017 25.8249 25.3473 25.4925 25.6243C25.1602 25.897 24.7788 26.108 24.3484 26.2571C23.9222 26.4062 23.4684 26.4808 22.9869 26.4808C22.2156 26.4808 21.5273 26.2997 20.9222 25.9375C20.3171 25.5753 19.8398 25.0767 19.4904 24.4418C19.141 23.8068 18.9663 23.0824 18.9663 22.2685C18.962 21.3906 19.1644 20.6087 19.5735 19.9226C19.9826 19.2365 20.5536 18.6996 21.2866 18.3118C22.0238 17.9197 22.8803 17.7259 23.8562 17.7301ZM23.8754 19.9034C23.445 19.9034 23.0614 20.0057 22.7248 20.2102C22.3924 20.4148 22.1282 20.6896 21.9322 21.0348C21.7404 21.38 21.6467 21.7656 21.6509 22.1918C21.6509 22.6222 21.7447 23.0099 21.9322 23.3551C22.1239 23.696 22.3839 23.9687 22.712 24.1733C23.0444 24.3736 23.4237 24.4737 23.8498 24.4737C24.1694 24.4737 24.4656 24.4141 24.7383 24.2947C25.011 24.1754 25.2475 24.0114 25.4478 23.8026C25.6523 23.5895 25.8121 23.3445 25.9272 23.0675C26.0423 22.7905 26.0998 22.4964 26.0998 22.1854C26.0955 21.772 25.9975 21.3928 25.8058 21.0476C25.614 20.7024 25.3498 20.4254 25.0131 20.2166C24.6765 20.0078 24.2972 19.9034 23.8754 19.9034Z" fill="black"/>
<circle cx="157" cy="114" r="28.3" fill="white" fill-opacity="0.72" stroke="#555C63" stroke-width="1.4"/>
<path d="M153.157 107.909V121H150.389V110.536H150.312L147.314 112.415V109.961L150.555 107.909H153.157ZM161.401 121.288C160.301 121.283 159.355 121.013 158.563 120.476C157.775 119.939 157.167 119.161 156.741 118.143C156.319 117.124 156.11 115.899 156.115 114.467C156.115 113.04 156.326 111.823 156.748 110.817C157.174 109.812 157.781 109.047 158.569 108.523C159.362 107.994 160.306 107.73 161.401 107.73C162.496 107.73 163.438 107.994 164.226 108.523C165.019 109.051 165.628 109.818 166.054 110.824C166.48 111.825 166.691 113.04 166.687 114.467C166.687 115.903 166.474 117.131 166.048 118.149C165.626 119.168 165.021 119.945 164.233 120.482C163.444 121.019 162.5 121.288 161.401 121.288ZM161.401 118.993C162.151 118.993 162.75 118.616 163.197 117.862C163.645 117.107 163.866 115.976 163.862 114.467C163.862 113.474 163.76 112.648 163.555 111.987C163.355 111.327 163.069 110.83 162.699 110.498C162.332 110.165 161.9 109.999 161.401 109.999C160.655 109.999 160.059 110.372 159.611 111.118C159.164 111.864 158.938 112.98 158.934 114.467C158.934 115.473 159.034 116.312 159.234 116.986C159.439 117.655 159.726 118.158 160.097 118.494C160.468 118.827 160.902 118.993 161.401 118.993Z" fill="black"/>
<circle cx="260.5" cy="239.5" r="23.8" fill="white" fill-opacity="0.72" stroke="#555C63" stroke-width="1.4"/>
<path d="M260.994 247.179C260.01 247.179 259.134 247.019 258.367 246.7C257.604 246.376 257.006 245.935 256.571 245.376C256.136 244.818 255.919 244.185 255.919 243.478C255.919 242.933 256.043 242.432 256.29 241.976C256.541 241.516 256.882 241.134 257.313 240.832C257.743 240.525 258.225 240.329 258.757 240.244V240.154C258.058 240.013 257.492 239.675 257.057 239.138C256.622 238.597 256.405 237.968 256.405 237.252C256.405 236.575 256.603 235.972 256.999 235.443C257.396 234.911 257.939 234.493 258.629 234.19C259.324 233.884 260.112 233.73 260.994 233.73C261.877 233.73 262.663 233.884 263.353 234.19C264.048 234.497 264.593 234.917 264.989 235.45C265.386 235.978 265.586 236.579 265.59 237.252C265.586 237.972 265.364 238.601 264.926 239.138C264.487 239.675 263.924 240.013 263.238 240.154V240.244C263.762 240.329 264.237 240.525 264.663 240.832C265.094 241.134 265.435 241.516 265.686 241.976C265.942 242.432 266.072 242.933 266.076 243.478C266.072 244.185 265.852 244.818 265.418 245.376C264.983 245.935 264.382 246.376 263.615 246.7C262.852 247.019 261.979 247.179 260.994 247.179ZM260.994 245.146C261.433 245.146 261.817 245.067 262.145 244.91C262.473 244.748 262.729 244.526 262.912 244.245C263.1 243.96 263.193 243.631 263.193 243.261C263.193 242.881 263.097 242.547 262.906 242.257C262.714 241.963 262.454 241.733 262.126 241.567C261.798 241.396 261.421 241.311 260.994 241.311C260.573 241.311 260.195 241.396 259.863 241.567C259.531 241.733 259.269 241.963 259.077 242.257C258.889 242.547 258.796 242.881 258.796 243.261C258.796 243.631 258.887 243.96 259.07 244.245C259.254 244.526 259.511 244.748 259.844 244.91C260.176 245.067 260.56 245.146 260.994 245.146ZM260.994 239.298C261.361 239.298 261.687 239.223 261.972 239.074C262.258 238.925 262.482 238.718 262.644 238.454C262.805 238.19 262.886 237.885 262.886 237.54C262.886 237.199 262.805 236.901 262.644 236.645C262.482 236.385 262.26 236.183 261.979 236.038C261.698 235.888 261.369 235.814 260.994 235.814C260.624 235.814 260.296 235.888 260.01 236.038C259.725 236.183 259.501 236.385 259.339 236.645C259.181 236.901 259.102 237.199 259.102 237.54C259.102 237.885 259.183 238.19 259.345 238.454C259.507 238.718 259.731 238.925 260.016 239.074C260.302 239.223 260.628 239.298 260.994 239.298Z" fill="black"/>
<circle cx="37.5" cy="231.5" r="32.8" fill="white" fill-opacity="0.72" stroke="#555C63" stroke-width="1.4"/>
<path d="M27.1958 239V237.006L31.8556 232.691C32.252 232.308 32.5843 231.962 32.8528 231.656C33.1255 231.349 33.3322 231.048 33.4728 230.754C33.6135 230.456 33.6838 230.134 33.6838 229.789C33.6838 229.406 33.5964 229.075 33.4217 228.798C33.247 228.517 33.0083 228.302 32.7058 228.153C32.4032 227.999 32.0602 227.923 31.6767 227.923C31.2761 227.923 30.9267 228.004 30.6284 228.165C30.3301 228.327 30.1 228.56 29.938 228.862C29.7761 229.165 29.6951 229.525 29.6951 229.942H27.068C27.068 229.086 27.2619 228.342 27.6497 227.712C28.0375 227.081 28.5808 226.593 29.2797 226.248C29.9785 225.903 30.7839 225.73 31.6958 225.73C32.6333 225.73 33.4494 225.896 34.144 226.229C34.8429 226.557 35.3862 227.013 35.774 227.597C36.1618 228.18 36.3556 228.849 36.3556 229.604C36.3556 230.098 36.2576 230.586 36.0616 231.067C35.8699 231.549 35.5268 232.084 35.0325 232.672C34.5382 233.256 33.8414 233.957 32.9423 234.775L31.0311 236.648V236.737H36.5282V239H27.1958ZM43.6665 239.288C42.5671 239.283 41.6211 239.013 40.8285 238.476C40.0401 237.939 39.4329 237.161 39.0067 236.143C38.5849 235.124 38.3761 233.899 38.3803 232.467C38.3803 231.04 38.5913 229.823 39.0131 228.817C39.4393 227.812 40.0465 227.047 40.8349 226.523C41.6275 225.994 42.5714 225.73 43.6665 225.73C44.7617 225.73 45.7035 225.994 46.4918 226.523C47.2844 227.051 47.8938 227.818 48.32 228.824C48.7461 229.825 48.957 231.04 48.9528 232.467C48.9528 233.903 48.7397 235.131 48.3136 236.149C47.8917 237.168 47.2866 237.945 46.4982 238.482C45.7099 239.019 44.766 239.288 43.6665 239.288ZM43.6665 236.993C44.4165 236.993 45.0153 236.616 45.4627 235.862C45.9102 235.107 46.1317 233.976 46.1275 232.467C46.1275 231.474 46.0252 230.648 45.8207 229.987C45.6204 229.327 45.3349 228.83 44.9641 228.498C44.5977 228.165 44.1651 227.999 43.6665 227.999C42.9208 227.999 42.3242 228.372 41.8768 229.118C41.4293 229.864 41.2035 230.98 41.1992 232.467C41.1992 233.473 41.2994 234.312 41.4996 234.986C41.7042 235.655 41.9918 236.158 42.3626 236.494C42.7333 236.827 43.168 236.993 43.6665 236.993Z" fill="black"/>
</svg>
