<svg width="29" height="28" viewBox="0 0 29 28" fill="none" xmlns="http://www.w3.org/2000/svg">
<path d="M26.6448 0H1.73605C1.32618 0.000165639 0.933141 0.163061 0.643316 0.452886C0.353491 0.742711 0.190595 1.13575 0.19043 1.54562V26.4544C0.190595 26.8642 0.353491 27.2573 0.643316 27.5471C0.933141 27.8369 1.32618 27.9998 1.73605 28H14.1904V17H10.8436V13H14.1904V9.8125C14.1904 6.19625 16.6985 4.2275 19.9292 4.2275C21.4748 4.2275 23.1373 4.34375 23.5235 4.395V8.17187H20.9498C19.1923 8.17187 18.8573 9.00312 18.8573 10.2281V13H23.0448L22.4979 17H18.8573V28H26.6448C27.0547 27.9998 27.4477 27.8369 27.7375 27.5471C28.0274 27.2573 28.1903 26.8642 28.1904 26.4544V1.54562C28.1903 1.13575 28.0274 0.742711 27.7375 0.452886C27.4477 0.163061 27.0547 0.000165639 26.6448 0Z" fill="#878F97"/>
</svg>
