<svg width="25" height="25" viewBox="0 0 25 25" fill="none" xmlns="http://www.w3.org/2000/svg">
<path fill-rule="evenodd" clip-rule="evenodd" d="M5.12378 3.26792C4.10833 3.48586 2.9903 4.3814 2.50623 5.36463C2.28433 5.81531 2.17739 6.20966 2.1081 6.83289C1.98394 7.94879 2.07201 16.6112 2.21417 17.2656C2.27194 17.5318 2.4952 18.1072 2.71023 18.5444C3.35214 19.8497 4.52804 20.8814 5.95662 21.3928C6.42985 21.5621 6.8961 21.6145 8.61133 21.6909C10.6515 21.7818 18.1205 21.7187 18.7573 21.6052C19.4454 21.4825 19.6968 20.3997 19.1733 19.8137C18.9072 19.516 18.862 19.5023 18.012 19.4616L17.1275 19.4193V17.6409C17.1275 16.6086 17.1652 15.8624 17.2175 15.8624C17.267 15.8624 17.8925 16.4395 18.6074 17.1447C20.0793 18.5965 20.4149 19.1411 20.6169 20.406C20.7484 21.2285 21.064 21.6606 21.5474 21.6796C22.673 21.7236 22.9991 21.3316 22.9085 20.0435C22.8442 19.1312 22.409 17.8864 21.9227 17.224C21.7333 16.966 20.8356 16.0315 19.9276 15.1473L18.2769 13.5398H17.2636C15.677 13.5398 14.8832 13.2191 13.7255 12.1104L13.0814 11.4937L12.3294 11.7949C10.3673 12.5805 8.84804 14.1495 8.24301 16.0147C8.05294 16.6008 7.85301 17.8957 7.81091 18.814L7.78875 19.2979L7.35327 19.2927C6.4072 19.2813 5.21359 18.4401 4.69691 17.4205L4.44801 16.9294L4.42488 11.8233C4.39875 6.06915 4.36652 6.33837 5.14139 5.82557C5.43801 5.62931 5.68575 5.55518 6.13072 5.52982C6.85933 5.48821 7.30739 5.70131 7.57488 6.21663C7.95723 6.95337 7.53181 7.75563 6.59349 8.06734C5.80643 8.32873 5.43172 8.92534 5.62198 9.61447C5.98672 10.9353 8.3572 10.4049 9.43459 8.76131C10.3607 7.34831 10.2079 5.61711 9.04614 4.36234C8.27833 3.53299 7.66943 3.26763 6.44117 3.22679C5.90494 3.20899 5.3121 3.22757 5.12378 3.26792ZM16.2565 3.26957C15.4697 3.44386 14.3045 4.31598 13.8277 5.08737C13.6751 5.33424 13.5104 5.44408 13.125 5.55615C11.7878 5.94489 11.0519 7.41537 11.5629 8.6777C11.788 9.23366 12.5459 9.90344 13.1108 10.0457C13.5681 10.1609 13.6333 10.216 14.124 10.9017C14.795 11.8396 15.9496 12.4079 17.1758 12.4038C18.3106 12.3999 18.9331 12.1366 19.7375 11.3202C20.085 10.9675 20.4473 10.5608 20.5426 10.4166C20.6378 10.2724 20.8338 10.1306 20.9781 10.1012C22.3786 9.81692 23.3094 8.23873 22.7981 7.01511C22.4963 6.2927 21.5314 5.5157 20.9288 5.5097C20.7763 5.50815 20.6188 5.35863 20.3857 4.99428C19.9914 4.37792 19.3909 3.84566 18.7188 3.51682C18.1802 3.25331 16.907 3.12547 16.2565 3.26957ZM19.0658 5.72531C19.593 5.99163 19.8956 6.42537 19.9794 7.03486C20.0833 7.79047 19.7227 8.40721 18.942 8.80873C18.6685 8.94934 18.5791 9.05521 18.5791 9.2384C18.5791 9.59231 18.352 10.0689 18.0515 10.3463C17.8292 10.5514 17.6958 10.5882 17.1744 10.5882C16.6243 10.5882 16.527 10.5576 16.251 10.2979C15.9088 9.97602 15.6758 9.50995 15.6758 9.14724C15.6758 8.96376 15.6023 8.88537 15.3531 8.80311C14.2539 8.4404 13.947 6.83647 14.8206 6.02086C15.2796 5.59224 15.6356 5.5154 17.1795 5.51134C18.5008 5.50795 18.6745 5.5276 19.0658 5.72531ZM15.6343 6.82089C15.4414 7.01395 15.4376 7.47905 15.6277 7.63689C15.841 7.81389 16.2704 7.78399 16.4183 7.58182C16.7029 7.1926 16.4713 6.66886 16.0146 6.66886C15.8891 6.66886 15.718 6.73728 15.6343 6.82089ZM17.9569 6.82089C17.7639 7.01395 17.7602 7.47905 17.9503 7.63689C18.1636 7.81389 18.593 7.78399 18.7409 7.58182C19.0255 7.1926 18.7939 6.66886 18.3371 6.66886C18.2117 6.66886 18.0406 6.73728 17.9569 6.82089Z" fill="white"/>
</svg>
